- 
http://www.Speed.Cd 
       
http://www.Speed.Cd      fast  and The Hottest Private Tracker on the net

(((--Submit for invite!!--)))

Please Seed back to make the speed Faster!!!

------------------nfo--------------------------
-








































          
          
              
              
                    
                    
                    
                    

Herschell.Gordon.Lewis.The.Godfather.Of.Gore.2010.DVDRiP.XviD-SiC

Poster:
[img]http://img217.imageshack.us/img217/2494/blubloodgodb.jpg[/img]

IMDB Link: 
http://www.imdb.com/title/tt1683431/

Description:
Featuring interviews with cast, crew and critics such as director John Waters, drive-in movie critic Joe Bob Briggs and Herschell Gordon Lewis himself, The Godfather of Gore traces Lewis start in the innocent bare-naked world of Nudie Cuties before he shocked the world with Blood Feast, the first-ever gore film! Lewis then continued to assault audiences with such audacious shockers as She-Devils on Wheels, Blast-Off Girls, Just for the Hell of It, Two Thousand Maniacs!, The Gruesome Twosome, The Gore Gore Girls, and the incredible Wizard of Gore! Packed with tons of clips, rare outtakes, and testimony from the people who were there, Herschell Gordon Lewis: The Godfather of Gore will leave you laughing and screaming at some of the most amazing motion picture madness to ever play American movie theaters!  

MediaInfo:
General
Complete name                    : Herschell.Gordon.Lewis.The.Godfather.Of.Gore.2010.DVDRiP.XviD-SiC.avi
Format                           : AVI
Format/Info                      : Audio Video Interleave
Format profile                   : OpenDML
Format settings                  : rec
File size                        : 1.36 GiB
Duration                         : 1h 46mn
Overall bit rate                 : 1 826 Kbps
Writing application              : AVI-Mux GUI 1.17.8, Aug 30 2008  12:36:58

Video
ID                               : 0
Format                           : MPEG-4 Visual
Format profile                   : Advanced Simple@L5
Format settings, BVOP            : 1
Format settings, QPel            : No
Format settings, GMC             : No warppoints
Format settings, Matrix          : Default (H.263)
Codec ID                         : XVID
Codec ID/Hint                    : XviD
Duration                         : 1h 46mn
Bit rate                         : 1 628 Kbps
Width                            : 720 pixels
Height                           : 400 pixels
Display aspect ratio             : 16:9
Frame rate                       : 23.976 fps
Color space                      : YUV
Chroma subsampling               : 4:2:0
Bit depth                        : 8 bits
Scan type                        : Progressive
Compression mode                 : Lossy
Bits/(Pixel*Frame)               : 0.236
Stream size                      : 1.21 GiB (89%)
Writing library                  : XviD 1.2.1 (UTC 2008-12-04)

Audio
ID                               : 1
Format                           : AC-3
Format/Info                      : Audio Coding 3
Mode extension                   : CM (complete main)
Codec ID                         : 2000
Duration                         : 1h 46mn
Bit rate mode                    : Constant
Bit rate                         : 192 Kbps
Channel(s)                       : 2 channels
Channel positions                : Front: L R
Sampling rate                    : 48.0 KHz
Bit depth                        : 16 bits
Compression mode                 : Lossy
Stream size                      : 147 MiB (11%)
Alignment                        : Aligned on interleaves
Interleave, duration             : 64 ms (1.53 video frames)
Interleave, preload duration     : 448 ms
Title                            : VTS_01_1 T80 2_0ch 192Kbps DELAY 0ms

Screenshots:
[img]http://img195.imageshack.us/img195/6710/vlcsnap2011090907h43m39.png[/img]
[img]http://img194.imageshack.us/img194/5082/vlcsnap2011090907h43m45.png[/img]
[img]http://img692.imageshack.us/img692/6894/vlcsnap2011090907h43m51.png[/img]
[img]http://img21.imageshack.us/img21/1078/vlcsnap2011090907h44m01.png[/img]
[img]http://img27.imageshack.us/img27/5637/vlcsnap2011090907h44m16.png[/img]


Note : Pretty solid documentary that's being released on DVD soon. If you're at all interested in the origins of the gore flick, or even just exploitation film in general, then give this a shot.  

Source: Our own

Enjoy!

Respects to CaptainHomey, Cyanide, CM8, Rx, THC, ELEKTRI4KA, 
Killerhz, PA, YeFsTe, BoxSlots, MrRep and everyone in the struggle...